<svg xmlns="http://www.w3.org/2000/svg" xmlns:xlink="http://www.w3.org/1999/xlink" width="25.415" height="24.091" viewBox="0 0 25.415 24.091"><defs><clipPath id="a"><rect width="25.415" height="24.091" fill="none"/></clipPath></defs><g clip-path="url(#a)"><path d="M292.355,477.774c-.051.35-.06.493-.094.631-.363,1.489-3.686,3.817-5.266,3.6a13.464,13.464,0,0,1-3.269-.746c-6.81-2.8-11.626-7.438-14.015-14.216-.7-1.979-.521-3.8,1.371-5.2.467-.346.832-.814,1.283-1.182a1.821,1.821,0,0,1,2.566.026q1.621,1.464,3.159,3.01a1.632,1.632,0,0,1-.042,2.565,10.417,10.417,0,0,1-1.331,1.257,1.031,1.031,0,0,0-.276,1.646,18.016,18.016,0,0,0,6.684,6.237.913.913,0,0,0,1.3-.214,16.645,16.645,0,0,1,1.516-1.444,1.872,1.872,0,0,1,2.7.006c1.057.958,2.1,1.937,3.09,2.955A4.337,4.337,0,0,1,292.355,477.774Z" transform="translate(-269.336 -457.928)" fill="#3dcce9"/><path d="M334.344,461.994l-2,.326c-1.338-5.413-4.837-8.683-10.592-9.788.031-.316.051-.645.1-.971.043-.3.115-.6.173-.895A13.991,13.991,0,0,1,334.344,461.994Z" transform="translate(-308.928 -450.667)" fill="#3dcce9"/><path d="M328.342,478.132l-1.95.3a6.755,6.755,0,0,0-5.732-5.279c.073-.614.149-1.244.224-1.868C324.1,471.1,328.167,474.8,328.342,478.132Z" transform="translate(-308.104 -466.468)" fill="#3dcce9"/></g></svg>