<svg xmlns="http://www.w3.org/2000/svg" width="23.573" height="23.573" viewBox="0 0 23.573 23.573"><path d="M427.935,451.826A11.786,11.786,0,1,1,416.143,463.6,11.833,11.833,0,0,1,427.935,451.826Zm-1.165,7.538h0c0,1.378,0,2.756,0,4.134a1.261,1.261,0,0,0,.3.887q1.306,1.476,2.607,2.954l1.839,2.089a1.157,1.157,0,0,0,1.174.438,1.17,1.17,0,0,0,.555-2.007c-1.329-1.51-2.661-3.017-3.982-4.534a.721.721,0,0,1-.165-.433c-.01-2.4-.007-4.8-.007-7.193,0-.211,0-.423-.007-.634a1.157,1.157,0,0,0-2.31.083C426.762,456.553,426.77,457.958,426.77,459.364Z" transform="translate(-416.142 -451.826)" fill="#3dcce9"/></svg>