<svg xmlns="http://www.w3.org/2000/svg" width="63.437" height="70.823" viewBox="0 0 63.437 70.823"><g transform="translate(0)"><path d="M-1014.851-119.512h28.427a5.508,5.508,0,0,1,.645.012,1.319,1.319,0,0,1,1.234,1.263,1.241,1.241,0,0,1-1.224,1.332c-1.37.057-2.744.038-4.116.038q-12.795,0-25.589,0c-1.741,0-2.089-.339-2.089-2.062q0-31.08,0-62.16c0-.269-.009-.539,0-.807.048-1.019.482-1.456,1.519-1.462,2.933-.015,5.866-.013,8.8-.013,7.1,0,14.208.015,21.312-.006a2.582,2.582,0,0,1,2,.807q7.289,7.267,14.633,14.478a2.325,2.325,0,0,1,.76,1.847c-.042,2.313-.012,4.628-.016,6.942,0,.992-.514,1.6-1.318,1.579-.778-.017-1.259-.6-1.261-1.548-.006-2.066,0-4.132,0-6.3h-.926q-6.418,0-12.836,0c-1.334,0-1.735-.4-1.735-1.721q0-6.256,0-12.513v-.9h-28.215Zm41.243-48.709-10.4-10.708v10.708Z" transform="translate(1017.565 183.374)" fill="#3dcce9"/><path d="M-803.071,25.411l-8.947,6.766c-.15.114-.288.287-.456.325-.5.112-1.1.375-1.475.19a1.692,1.692,0,0,1-.7-1.289c-.056-3.765-.034-7.531-.035-11.3,0-.081,0-.162,0-.242.169-2.278.112-4.5-1.654-6.262A15.683,15.683,0,0,1-805.173-9.753,15.7,15.7,0,0,1-787.21,4.555a15.716,15.716,0,0,1-3.274,10.853,2.339,2.339,0,0,0-.427,1.311c-.03,4.814-.025,9.629-.012,14.443,0,.655-.047,1.264-.708,1.58a1.587,1.587,0,0,1-1.71-.351q-4.345-3.142-8.711-6.255C-802.377,25.9-802.7,25.671-803.071,25.411ZM-815.824,5.747a13.025,13.025,0,0,0,13.165,13.042A13.035,13.035,0,0,0-789.785,5.779,13,13,0,0,0-802.748-7.288,12.985,12.985,0,0,0-815.824,5.747ZM-793.565,29V18.458q-9.291,5.914-18.466.008V28.9c.361-.266.641-.466.916-.674q3.439-2.608,6.876-5.218c.926-.7,1.3-.712,2.232-.047C-799.228,24.94-796.454,26.928-793.565,29Z" transform="translate(850.607 37.949)" fill="#3dcce9"/><path d="M-937.293-36.14q-4.635,0-9.269,0c-.757,0-1.41-.186-1.627-1.009-.246-.926.422-1.644,1.54-1.652,2.149-.015,4.3-.005,6.448,0q6,0,12.009.01a2.85,2.85,0,0,1,.947.12,1.187,1.187,0,0,1,.835,1.24,1.171,1.171,0,0,1-.9,1.185,3.54,3.54,0,0,1-.953.1q-4.513.011-9.027,0Z" transform="translate(959.433 62.15)" fill="#3dcce9"/><path d="M-937.274,21.933h-8.946c-.188,0-.377.009-.564-.006a1.3,1.3,0,0,1-1.341-1.313,1.264,1.264,0,0,1,1.328-1.319c1.261-.045,2.525-.021,3.787-.021q7.415,0,14.829.006c.161,0,.323-.007.484,0a1.311,1.311,0,0,1,1.384,1.353,1.31,1.31,0,0,1-1.371,1.286c-.643.031-1.289.013-1.934.014h-7.657Z" transform="translate(959.337 13.451)" fill="#3dcce9"/><path d="M-941.021,77.417c1.853,0,3.706-.022,5.559.008,1.174.019,1.894.972,1.352,1.835a1.818,1.818,0,0,1-1.277.767c-3.786.058-7.573.042-11.359.022a1.264,1.264,0,0,1-1.37-1.274,1.261,1.261,0,0,1,1.376-1.346c1.906-.032,3.813-.01,5.72-.01Z" transform="translate(959.33 -35.304)" fill="#3dcce9"/><path d="M-754.632,60.49l4.218-6.166c.258-.377.5-.765.777-1.127a1.3,1.3,0,0,1,1.778-.37,1.266,1.266,0,0,1,.366,1.834q-2.9,4.31-5.861,8.582a1.2,1.2,0,0,1-1.9.214c-1.314-1.15-2.595-2.339-3.858-3.545a1.253,1.253,0,0,1-.049-1.81,1.251,1.251,0,0,1,1.807-.081C-756.444,58.8-755.573,59.632-754.632,60.49Z" transform="translate(801.189 -14.517)" fill="#3dcce9"/></g></svg>