<svg xmlns="http://www.w3.org/2000/svg" width="68.602" height="63.111" viewBox="0 0 68.602 63.111"><g transform="translate(0 0)"><path d="M-2622.876-482.749h-32.638c-1.066,0-1.719-.538-1.694-1.4a4.556,4.556,0,0,1,.085-.635,30.507,30.507,0,0,1,3.742-10.963,8.811,8.811,0,0,1,5.27-4.095c4.332-1.226,8.617-2.62,12.926-3.928a1.253,1.253,0,0,0,.869-.751c.291-.664.667-1.292.941-1.963a.933.933,0,0,0-.062-.784,20.96,20.96,0,0,1-4.181-11.054,33.655,33.655,0,0,1,.078-7.483,1.982,1.982,0,0,0-.076-.753q-1.835-6.369-3.687-12.733c-.558-1.927-.128-3.108,1.741-3.9a25.371,25.371,0,0,1,4.994-1.552,60.739,60.739,0,0,1,18.561-.724,36.417,36.417,0,0,1,8.515,1.713,9.136,9.136,0,0,1,2.094,1.082,2.54,2.54,0,0,1,1.011,3.1c-1.256,4.3-2.545,8.6-3.733,12.919a7.882,7.882,0,0,0,.028,2.464c.313,5.16-.2,10.163-2.817,14.758a17.092,17.092,0,0,1-1.407,2.061.735.735,0,0,0-.086.971,3.2,3.2,0,0,1,.4.8c.376,1.352,1.356,1.858,2.637,2.226,4.205,1.208,8.379,2.527,12.56,3.818a7.7,7.7,0,0,1,3.981,3.183,23.78,23.78,0,0,1,3.371,7.912c.338,1.3.581,2.625.812,3.949.2,1.119-.378,1.75-1.53,1.751q-8.208.006-16.415,0Zm31.246-2.747a.978.978,0,0,0,.03-.273,24.789,24.789,0,0,0-3.376-8.992,5.31,5.31,0,0,0-2.9-2.3c-3.842-1.152-7.672-2.344-11.509-3.512-.584-.177-1.3-.572-1.738-.376-.373.169-.434,1.037-.628,1.6a21.659,21.659,0,0,1-4.705,8.287c-3.879,3.987-9.026,3.975-12.89-.014a19.067,19.067,0,0,1-3.9-6.2c-.5-1.239-.928-2.512-1.4-3.807-.211.05-.417.088-.615.149-4.079,1.253-8.145,2.553-12.242,3.742a5.91,5.91,0,0,0-3.431,2.6,24.71,24.71,0,0,0-3.146,8.272c-.058.26-.085.526-.139.869h39.374c.513,0,1.027-.027,1.538.006.492.032.686-.123.665-.645-.038-.939-.012-1.88-.009-2.82.005-1.167.462-1.632,1.627-1.634q4.487-.007,8.974,0c1.1,0,1.585.5,1.587,1.616s0,2.255,0,3.43Zm-31.216-39.435c-3.781,0-7.563.011-11.344-.011-.566,0-.812.141-.793.74.066,2.151-.042,4.319.185,6.452a16.294,16.294,0,0,0,3.767,9.156,10.374,10.374,0,0,0,14.728,1.487,13.938,13.938,0,0,0,4.554-7.049,27.16,27.16,0,0,0,.955-10.014c-.043-.609-.23-.777-.834-.773C-2615.37-524.918-2619.108-524.931-2622.847-524.932Zm-.047-2.688c3.845,0,7.69-.011,11.535.013a.757.757,0,0,0,.874-.669c.97-3.428,1.97-6.848,2.964-10.27.65-2.239.658-2.255-1.652-2.936a47.537,47.537,0,0,0-9.786-1.534,55.364,55.364,0,0,0-13.784.689c-1.836.317-3.619.945-5.423,1.441-.561.154-.666.483-.5,1.056q1.713,5.767,3.353,11.557a.761.761,0,0,0,.88.665C-2630.584-527.631-2626.739-527.62-2622.894-527.62Zm-8.182,22.779c-.811,1.179-1.4,2.364-.677,3.8a10.063,10.063,0,0,1,.388,1.151,17.925,17.925,0,0,0,4.245,7.22,5.969,5.969,0,0,0,4.347,1.887,6.007,6.007,0,0,0,4.093-1.882c2.513-2.427,3.682-5.578,4.791-8.792.492-1.428-.3-2.327-.8-3.4C-2620.182-501.031-2625.605-501.025-2631.075-504.841Zm24.468,19.39h1.662c1.86,0,1.848,0,1.8-1.864-.011-.415-.143-.554-.559-.548-1.491.02-2.983.008-4.474.008-1.829,0-1.815,0-1.791,1.861.006.423.137.56.551.551C-2608.482-485.466-2607.544-485.451-2606.607-485.451Z" transform="translate(2657.209 545.859)" fill="#3dcce9"/><path d="M-2336.691-491.436c0-1.129-.011-2.171,0-3.212a1.381,1.381,0,0,1,.872-1.369,1.146,1.146,0,0,1,1.4.3,2.268,2.268,0,0,1,.434,1.216c.062.976.02,1.959.02,3.012.331.02.618.051.906.053.769.007,1.539,0,2.308,0,1.068,0,1.671.484,1.68,1.333s-.617,1.362-1.658,1.366-2.087,0-3.243,0c0,.808,0,1.567,0,2.326,0,.342.017.686-.013,1.025a1.307,1.307,0,0,1-1.322,1.294,1.3,1.3,0,0,1-1.374-1.307c-.043-.853-.015-1.709-.018-2.564,0-.229,0-.459,0-.774h-2.865c-.257,0-.515.016-.769-.009a1.351,1.351,0,0,1-1.257-1.371,1.312,1.312,0,0,1,1.308-1.31c.918-.029,1.837-.01,2.756-.011Z" transform="translate(2369.637 500.553)" fill="#3dcce9"/></g></svg>