<svg xmlns="http://www.w3.org/2000/svg" width="55.416" height="73.929" viewBox="0 0 55.416 73.929"><path d="M-2056.451-555.892a3.863,3.863,0,0,0-.465-.167,6.117,6.117,0,0,1-4.845-6.026q0-27.689.011-55.379a6.074,6.074,0,0,1,6.12-6.153c1.925-.015,3.851-.018,5.776,0a.9.9,0,0,0,.946-.566,4.481,4.481,0,0,1,4.2-2.56c1.323-.026,2.648.02,3.971-.026a1.432,1.432,0,0,0,.908-.412,7.623,7.623,0,0,1,11.536-.014,1.546,1.546,0,0,0,.979.421c1.513.061,3.033-.012,4.543.09a4.155,4.155,0,0,1,3.527,2.412,1.043,1.043,0,0,0,1.119.637q2.815-.041,5.632-.009a6.074,6.074,0,0,1,6.14,6.21q.013,27.725.01,55.451a6.161,6.161,0,0,1-4.729,5.912,4.045,4.045,0,0,0-.454.173Zm37.821-64.724c-.043.18-.074.271-.087.364-.505,3.72-2.755,5.729-6.5,5.757-3.033.023-6.066.007-9.1,0-3.153-.008-6.308.047-9.457-.059a5.88,5.88,0,0,1-5.571-5.442c-.042-.561-.263-.662-.76-.655-1.733.025-3.471.09-5.2-.013a3.348,3.348,0,0,0-3.507,3.5q.057,27.366.033,54.733a3.2,3.2,0,0,0,3.484,3.512q21.121,0,42.241-.012c2.466,0,3.689-1.219,3.69-3.672q0-19.965,0-39.93c0-4.958.008-9.916,0-14.874a3.056,3.056,0,0,0-2.733-3.194C-2014.256-620.674-2016.422-620.616-2018.63-620.616Zm-15.443,3.135v-.021h5.2c1.348,0,2.7.019,4.043-.007a3.051,3.051,0,0,0,3.111-3.11c.011-.385,0-.77,0-1.155,0-1.382-.533-1.924-1.915-1.93q-2.418-.01-4.837,0a1.9,1.9,0,0,1-1.726-.962,4.55,4.55,0,0,0-7.7-.051,2.033,2.033,0,0,1-1.92,1c-1.3-.034-2.6-.017-3.9-.019-2.4,0-2.754.35-2.728,2.758a3.166,3.166,0,0,0,3.49,3.5C-2039.993-617.47-2037.033-617.481-2034.073-617.481Z" transform="translate(2061.76 629.821)" fill="#3dcce9"/><path d="M-1952.892-447.521c-1.1,2.933-2.126,5.673-3.148,8.416-.456,1.224-.937,1.7-1.716,1.66-.829-.042-1.248-.547-1.576-1.862q-1.653-6.636-3.317-13.27c-.027-.109-.081-.211-.18-.462-.179.331-.3.546-.412.766-1.248,2.493-2.51,4.98-3.731,7.485a1.823,1.823,0,0,1-1.868,1.16c-1.852-.045-3.706-.01-5.56-.016-1.08,0-1.692-.52-1.711-1.423-.02-.971.623-1.555,1.746-1.561,1.444-.009,2.889-.023,4.333.009a.875.875,0,0,0,.929-.586c1.755-3.556,3.542-7.1,5.307-10.647a1.589,1.589,0,0,1,1.62-1.072c.688.051,1.151.5,1.369,1.366q1.382,5.517,2.755,11.036a13.327,13.327,0,0,0,.729,2.261q1.016-2.688,2.031-5.377c.246-.652.492-1.3.72-1.961a1.5,1.5,0,0,1,1.394-1.166,1.576,1.576,0,0,1,1.573,1.04c.749,1.532,1.529,3.05,2.27,4.586a.756.756,0,0,0,.83.507,13.122,13.122,0,0,1,1.588,0,1.476,1.476,0,0,1,1.485,1.534,1.438,1.438,0,0,1-1.535,1.461c-.963.014-1.926-.016-2.888.006a1.553,1.553,0,0,1-1.552-.951C-1951.864-445.5-1952.333-446.414-1952.892-447.521Z" transform="translate(1988.483 483.612)" fill="#3dcce9"/><path d="M-1960.819-266.967q6.783,0,13.565,0c1.15,0,1.793.539,1.794,1.493s-.664,1.511-1.8,1.511q-13.565,0-27.13-.008c-1.005,0-1.624-.46-1.736-1.262a1.437,1.437,0,0,1,1.6-1.724q6.854-.007,13.709,0Z" transform="translate(1988.512 319.379)" fill="#3dcce9"/><path d="M-1960.784-203.1c4.5,0,9,.027,13.495-.019a1.592,1.592,0,0,1,1.809,1.507c.012.927-.693,1.522-1.8,1.522q-13.53,0-27.061-.009c-1.047,0-1.661-.408-1.8-1.183a1.45,1.45,0,0,1,1.581-1.8q6.892-.009,13.783,0Z" transform="translate(1988.543 264.75)" fill="#3dcce9"/></svg>