<svg xmlns="http://www.w3.org/2000/svg" width="81.243" height="63.781" viewBox="0 0 81.243 63.781"><g transform="translate(0)"><path d="M-3959.869,1927.6c0,3.074-.084,6.15.024,9.22.107,3.027-.779,4.1-3.792,4.109q-7.984.021-15.969,0c-2.818-.009-3.569-.916-3.773-3.749a4.879,4.879,0,0,0-1.383-2.822,51.445,51.445,0,0,0-4.2-3.367c-3.061-2.479-3.548-5.964-1.258-9.15,2.013-2.8,4.179-5.5,6.062-8.384a8.152,8.152,0,0,0,1.357-4.1c.117-9.278.055-18.558.064-27.837,0-3.7.682-4.36,4.406-4.361q31.939,0,63.876,0c3.416,0,4.042.614,4.042,3.982q.006,19.638,0,39.276c0,3.121-.635,3.737-3.823,3.739-8.775.006-17.552-.038-26.327.052a6.563,6.563,0,0,0-3.289,1.127c-1.741,1.133-3.313,2.525-4.958,3.806-3.791,2.95-7.269,2.582-10.3-1.1a4.2,4.2,0,0,1-.4-.761Zm6.368-7.649c2.229-1.617,4.128-3.181,6.213-4.434a7.986,7.986,0,0,1,3.959-1.2,2.493,2.493,0,0,0,2.637-1.573c1.906-3.7,3.837-7.4,5.906-11.009.376-.656,1.189-1.845,2.189-1.359,1.126.606.34,1.928-.012,2.631-1.994,3.977-4.169,7.864-6.232,11.807a4.228,4.228,0,0,0-.5,2c.047,1.529.264,3.053.423,4.683h25.8V1879.86h-66.71V1908.2c4.1-.095,8.027-.192,11.956-.275a8.5,8.5,0,0,1,7.3,3.422C-3958.319,1914.226-3955.933,1917-3953.5,1919.953Zm-.459,3.622c-2.983-3.63-5.734-7.228-8.783-10.552a7.643,7.643,0,0,0-4.324-2.311,43.29,43.29,0,0,0-9.046-.021,6.153,6.153,0,0,0-3.894,1.836c-2.952,3.614-5.616,7.465-8.347,11.256-.989,1.374-1.141,3.02.114,4.153,2.445,2.208,5.086,4.207,7.74,6.166a1.929,1.929,0,0,0,1.828-.423c.28-.334.083-1.307-.211-1.819a6.956,6.956,0,0,0-1.555-1.474c-4.464-3.934-4.466-3.945-.7-8.542.137-.167.244-.419.419-.482.661-.241,1.344-.421,2.019-.623.008.759.281,1.66-.033,2.246a24.239,24.239,0,0,1-2.435,3.2,27.642,27.642,0,0,1,3.984,3.684c.811,1.1,1.614,2.849,1.282,3.974-.368,1.247-1.983,2.171-3.154,3.113-.4.321-1.1.268-1.665.386l.06.854c6,.547,12.016.085,18.078.109.058-.647.126-1,.115-1.347-.134-4.313-.335-8.626-.372-12.94-.006-.778.651-1.562,1-2.342a7.741,7.741,0,0,1,2.075,1.193c1.057,1.167,1.894,2.531,2.881,3.766,1.792,2.242,3.707,2.507,5.977.782,2.634-2,5.218-4.066,7.82-6.109,1.182-.929,2.371-1.953,1.141-3.562-1.2-1.569-2.59-1.094-3.953-.08C-3948.494,1919.59-3951.11,1921.486-3953.961,1923.575Z" transform="translate(3991.654 -1877.161)" fill="#3dcce9"/><path d="M-3798.989,2052.5a8.272,8.272,0,0,1-8.627-8.449,8.507,8.507,0,0,1,8.535-8.657,8.731,8.731,0,0,1,8.609,8.672A8.439,8.439,0,0,1-3798.989,2052.5Zm5.805-8.543a5.75,5.75,0,0,0-5.87-5.833,5.794,5.794,0,0,0-5.969,5.957,5.887,5.887,0,0,0,5.883,5.876A5.842,5.842,0,0,0-3793.184,2043.962Z" transform="translate(3821.848 -2023.162)" fill="#3dcce9"/><path d="M-3243.613,1991.195v2.434h-14.79c-.042-.785-.083-1.53-.132-2.434Z" transform="translate(3315.229 -1982.376)" fill="#3dcce9"/><path d="M-3417.543,2073.568v-2.392a10.576,10.576,0,0,1,1.338-.184c4.931-.011,9.862-.008,14.949-.008v2.483c-.364.034-.708.1-1.052.1C-3407.314,2073.57-3412.321,2073.568-3417.543,2073.568Z" transform="translate(3461.94 -2055.995)" fill="#3dcce9"/><path d="M-3412.8,1993.368v-2.4h7.478c.037.722.076,1.458.125,2.4Z" transform="translate(3457.569 -1982.169)" fill="#3dcce9"/><path d="M-3151.768,2072.8h6.209v2.321h-6.06C-3151.663,2074.44-3151.706,2073.765-3151.768,2072.8Z" transform="translate(3216.719 -2057.674)" fill="#3dcce9"/></g></svg>