<svg xmlns="http://www.w3.org/2000/svg" width="72.628" height="63.984" viewBox="0 0 72.628 63.984"><g transform="translate(0.503 0.499)"><path d="M-2482.284-399.167c.879-1.178,1.679-2.387,2.614-3.479a18.44,18.44,0,0,1,12.284-6.7,18.14,18.14,0,0,1,14.488,4.774,18.559,18.559,0,0,1,6.156,10.633,17.7,17.7,0,0,1-.6,9.046,44.915,44.915,0,0,1-1.758,4.384,2,2,0,0,1-2.357,1.261,2.092,2.092,0,0,1-1.5-2.728,35.239,35.239,0,0,0,1.662-4.472c1.581-5.936.262-11.126-4.317-15.322a13.424,13.424,0,0,0-7.138-3.252,15.458,15.458,0,0,0-8.717.992,13.738,13.738,0,0,0-8.27,10.3,22.736,22.736,0,0,0-.446,3.27,2.168,2.168,0,0,1-1.631,1.949,1.952,1.952,0,0,1-2.117-.906,4.016,4.016,0,0,1-.375-1.58,16.438,16.438,0,0,0-2.265-7.494,13.776,13.776,0,0,0-10.519-6.592,14.869,14.869,0,0,0-8.625,1.284,14.04,14.04,0,0,0-7.86,10.487,16.783,16.783,0,0,0,1.4,9.838,44.209,44.209,0,0,0,6.407,10.282,100.8,100.8,0,0,0,12.949,13.317c3.3,2.855,6.734,5.554,10.1,8.336a.659.659,0,0,0,.989,0c2.073-1.654,4.164-3.286,6.252-4.922.234-.183.5-.332.73-.514a1.909,1.909,0,0,1,2.951,1.242,2.006,2.006,0,0,1-.707,2.159c-1.463,1.2-2.907,2.423-4.386,3.6q-1.851,1.476-3.768,2.871c-1.268.919-1.8.966-3.063.034-2.063-1.518-4.085-3.1-6.075-4.708a137.816,137.816,0,0,1-13.835-12.74,71.773,71.773,0,0,1-10.76-14.219,28.579,28.579,0,0,1-3.372-8.894,17.469,17.469,0,0,1,2.972-13.21,19.069,19.069,0,0,1,12.255-8.3,17.661,17.661,0,0,1,11.9,1.818,20.247,20.247,0,0,1,8.226,7.986C-2482.365-399.27-2482.309-399.2-2482.284-399.167Z" transform="translate(2518.039 409.505)" fill="#3dcce9" stroke="#fcfbfb" stroke-width="1"/><path d="M-2259.641-119.042c-.375.685-.714,1.274-1.026,1.878q-2.424,4.705-4.84,9.416c-.184.357-.415.689-.609,1.041a1.7,1.7,0,0,1-1.877.816,1.768,1.768,0,0,1-1.594-1.184c-.5-1.4-.977-2.811-1.466-4.216q-.814-2.34-1.634-4.678c-.058-.164-.131-.323-.233-.57a12.716,12.716,0,0,0-1.3,1.237,2.648,2.648,0,0,1-2.48,1.032c-1.216-.085-2.444.008-3.665-.026a2.017,2.017,0,0,1-1.86-2.962,1.667,1.667,0,0,1,1.49-1.056c1.054-.07,2.113-.086,3.17-.1a1.087,1.087,0,0,0,.825-.33c1.129-1.1,2.269-2.2,3.43-3.268a1.955,1.955,0,0,1,1.848-.538,1.653,1.653,0,0,1,1.2.979c.4.894.775,1.8,1.1,2.728.552,1.556,1.06,3.128,1.588,4.693.042.124.091.246.168.45.155-.238.29-.41.389-.6,1.4-2.694,2.795-5.394,4.2-8.086.607-1.161,1.251-2.3,1.86-3.462a1.688,1.688,0,0,1,1.773-.942,1.905,1.905,0,0,1,1.82,1.339q1.558,4.61,3.132,9.214,1.787,5.262,3.572,10.526c.051.151.115.3.212.549.147-.274.252-.46.349-.65q2.712-5.311,5.425-10.622c.2-.4.45-.771.689-1.148a1.561,1.561,0,0,1,1.253-.752c.223-.018.445-.056.668-.057,2.579-.005,5.157-.02,7.736.008a3.005,3.005,0,0,1,1.362.325,1.907,1.907,0,0,1,.939,2.211,1.994,1.994,0,0,1-1.948,1.548q-3.309.058-6.617.062a.735.735,0,0,0-.772.48q-3.61,7.159-7.255,14.3c-.216.424-.52.807-.705,1.242-.451,1.057-2.794.971-3.2-.144-.562-1.537-1.166-3.058-1.691-4.607-1.749-5.157-3.471-10.324-5.2-15.487C-2259.47-118.614-2259.538-118.774-2259.641-119.042Z" transform="translate(2303.508 152.08)" fill="#3dcce9" stroke="#fcfbfb" stroke-width="1"/></g></svg>