<svg xmlns="http://www.w3.org/2000/svg" width="68.557" height="67.906" viewBox="0 0 68.557 67.906"><g transform="translate(0.25 0.244)"><path d="M41.352,67.252H7.036c-1.558,0-3.134.075-4.692.056a2.97,2.97,0,0,1-1.505-.394A1.537,1.537,0,0,1,.927,64.12c1.541-.619,1.664-1.726,1.647-3.189C2.52,54.047,2.556,47.182,2.538,40.3c0-1.8-.089-3.62-.177-5.421a2.513,2.513,0,0,1,2.851-2.907c2.231.131,4.48.094,6.711.131A1.191,1.191,0,0,0,13.2,30.938a9.348,9.348,0,0,0,.106-1.388q-.027-7.119-.071-14.237c-.018-1.5-.089-3-.159-4.483-.106-2.138.726-3.114,2.727-3.076,2.16.038,4.3.131,6.445.206s2.55-.3,2.6-2.57a14.249,14.249,0,0,0-.177-1.951c-.212-1.819.372-3.583,2.886-3.508,3.825.113,7.667.094,11.492.113.673,0,1.346-.056,2.036-.113,1.239-.094,1.771.206,2.143,1.444a9.028,9.028,0,0,1,.266,2.307c.018.844-.106,1.688-.089,2.532.018,1.05.39,1.519,1.381,1.576,1.505.094,3.01.075,4.5.075,1.116,0,2.231-.094,3.364-.113,1.523-.038,2.249.694,2.267,2.363.035,1.688.018,3.376.018,5.065-.018,5.008-.035,10-.053,15.006,0,1.351.46,1.913,1.824,1.913,2.178.019,4.374.019,6.552-.075,1.842-.075,2.479.469,2.479,2.457,0,7.5-.035,15.006-.053,22.509,0,1.594-.018,3.189-.035,4.783a1.932,1.932,0,0,0,1.257,2.12,1.959,1.959,0,0,1,1.08,2.138,1.5,1.5,0,0,1-1.611,1.294c-2.957,0-5.9-.038-8.854-.038-5.365-.038-10.766-.038-16.167-.038ZM51.729,37.615h-.035V27.88c0-4.9.035-9.81.018-14.706,0-1.294-.531-1.838-1.735-1.857-1.824-.056-3.648-.094-5.489-.075-3.913.019-7.827.094-11.758.113-4.781.019-9.544-.038-14.325-.038-1.576,0-1.93.375-1.93,2.045-.018,2.682.018,5.365,0,8.066-.018,5.552-.071,11.123-.053,16.676.018,7.6.106,15.175.106,22.772,0,2.907.212,3.245,2.922,3,1.611-.15,1.895-.469,1.895-2.232,0-3.283.018-6.565,0-9.848-.018-2.926-.089-5.871-.159-8.8a2.787,2.787,0,0,1,3.01-2.889c.938.075,1.877.169,2.815.169,5.861,0,11.74.038,17.6-.075,1.859-.038,2.39,1.219,2.373,2.589,0,.882-.071,1.744-.089,2.626-.035,3.489-.053,7-.053,10.486,0,2.157-.018,4.314.053,6.453.035,1.144.425,1.463,1.505,1.519.637.019,1.293-.038,1.948-.075a1.29,1.29,0,0,0,1.328-1.426c.018-1.125.035-2.251.035-3.376C51.729,51.852,51.729,44.743,51.729,37.615Zm10.8,12.436h0c0-2.213,0-4.446-.018-6.659-.018-2.007.018-4-.089-6-.071-1.482-.531-1.838-1.912-1.857-1.151-.019-2.3,0-3.453,0-1.629.019-2.089.506-2.089,2.27,0,2.964.018,5.927.018,8.91q0,7.681-.035,15.363c0,1.2.407,1.707,1.576,1.763,1.328.056,2.656.019,3.984.038,1.541.019,2.019-.488,2.019-2.12C62.512,57.874,62.53,53.972,62.53,50.052ZM5.867,49.827h0c-.018,4.07-.018,8.122-.018,12.193,0,1.332.336,1.782,1.576,1.838,1.541.056,3.063.019,4.6.019a1.048,1.048,0,0,0,1.133-1.144c.035-.694.035-1.369.053-2.063.035-5.646.071-11.311.071-16.957,0-2.213,0-4.427-.106-6.64-.053-1.219-.39-1.444-1.523-1.482-1.2-.038-2.426-.056-3.63-.019-1.788.056-2.16.45-2.16,2.363C5.867,41.892,5.867,45.869,5.867,49.827Zm37.769,4.314h0q.027-3.883,0-7.766a10.712,10.712,0,0,0-.142-1.294,1.38,1.38,0,0,0-1.576-1.369c-1.363.038-2.709.019-4.073,0-1.753-.019-2.2.413-2.2,2.288-.018,5.308-.018,10.617-.035,15.907,0,1.407.478,1.951,1.788,1.97,1.452.019,2.886.019,4.338.019,1.541,0,1.877-.338,1.895-1.97C43.654,59.318,43.636,56.729,43.636,54.141Zm-19-.056c0,2.589.018,5.177,0,7.766-.018,1.519.319,1.951,1.771,1.988,1.346.038,2.709.019,4.073.019,1.611-.019,1.965-.394,1.965-2.12q0-7.4-.035-14.8a18.307,18.307,0,0,0-.071-1.97,1.242,1.242,0,0,0-1.293-1.257c-1.47-.019-2.939-.094-4.409-.038s-1.983.675-1.983,2.232C24.619,48.664,24.637,51.383,24.637,54.085Zm9.491-50.44h0c-1.541.019-3.063-.019-4.586.038-1.062.038-1.647.788-1.647,2.007,0,1.388.46,2.082,1.611,2.082,3.01.038,6,.038,9.013-.019,1.363-.038,1.771-.6,1.753-2.1-.018-1.388-.5-1.97-1.806-2.007C37.014,3.626,35.58,3.645,34.128,3.645Z" transform="translate(0.014 0.085)" fill="#3dcce9" stroke="#fcfbfb" stroke-width="0.5"/><path d="M153.462,100c0-.5.02-1,0-1.493-.06-1.454-.577-2.011-2.071-2.111-.9-.04-1.792.08-2.688.04a3.742,3.742,0,0,1-1.613-.358,1.677,1.677,0,0,1-.876-2.111,2.916,2.916,0,0,1,1.593-1.254,4.9,4.9,0,0,1,1.872-.04c.358,0,.717.1,1.1.1,2.031.04,2.688-.617,2.688-2.628,0-1.473-.319-3.027.737-4.3a1.97,1.97,0,0,1,1.354-.757,1.592,1.592,0,0,1,1.135,1,27.273,27.273,0,0,1,.378,4.221c.04,1.912.4,2.31,2.33,2.369,1.434.04,2.907-.3,4.3.438.6.319,1.394.518,1.135,1.334a2.9,2.9,0,0,1-1.234,1.613,6.39,6.39,0,0,1-2.409.418c-.856.08-1.712.02-2.569.08a1.521,1.521,0,0,0-1.513,1.553c-.04.816,0,1.653.02,2.489a10.85,10.85,0,0,1-.02,1.394c-.159,1.254-.717,1.792-1.732,1.732a1.8,1.8,0,0,1-1.932-1.931c0-.6.02-1.195.02-1.792Z" transform="translate(-121.27 -69.457)" fill="#3dcce9" stroke="#fcfbfb" stroke-width="0.5"/></g></svg>