<svg xmlns="http://www.w3.org/2000/svg" width="26.881" height="26.886" viewBox="0 0 26.881 26.886"><path d="M-841.283,1154.645l1.674-4.952c.2-.591.418-1.176.588-1.775a.84.84,0,0,0-.072-.58,12.983,12.983,0,0,1-1.643-7.793,13.105,13.105,0,0,1,9.4-11.242,13.2,13.2,0,0,1,16.641,9.83,13.107,13.107,0,0,1-9.759,15.453,13.33,13.33,0,0,1-9.283-1.116.811.811,0,0,0-.553-.035C-836.6,1153.153-838.906,1153.889-841.283,1154.645Zm3.3-3.234c.2-.059.3-.09.41-.124,1.189-.377,2.375-.762,3.568-1.124a.7.7,0,0,1,.508.054,11.139,11.139,0,0,0,8.542,1.35,11.037,11.037,0,0,0,8.163-13.213,11.1,11.1,0,0,0-12.775-8.339,11.07,11.07,0,0,0-9.155,10.832,10.681,10.681,0,0,0,1.89,6.134.725.725,0,0,1,.1.755c-.182.464-.332.94-.492,1.413C-837.468,1149.877-837.711,1150.607-837.98,1151.411Z" transform="translate(841.283 -1127.759)" fill="#3dcce9"/><path d="M-744.979,1225.233a3.646,3.646,0,0,1,1.042-2.43,2.058,2.058,0,0,1,1.761-.533c.16.011.367.229.445.4.4.874.766,1.761,1.13,2.65a.909.909,0,0,1-.247.9,5.957,5.957,0,0,1-.584.683.532.532,0,0,0-.077.737,8.844,8.844,0,0,0,4.46,3.781.5.5,0,0,0,.632-.157c.317-.386.651-.76.946-1.162a.548.548,0,0,1,.74-.233c.894.414,1.79.826,2.665,1.279a.674.674,0,0,1,.24.528,2.779,2.779,0,0,1-2.347,2.661,4.536,4.536,0,0,1-2.1-.145,12.423,12.423,0,0,1-7.218-5.271,7.51,7.51,0,0,1-1.383-2.8C-744.927,1225.829-744.944,1225.529-744.979,1225.233Z" transform="translate(752.207 -1215.166)" fill="#3dcce9"/></svg>